# xmcd CD database file
#
# Track frame offsets:
#	150
#	16730
#	43700
#	61047
#	81650
#	104360
#	132600
#	171190
#	211637
#	236740
#	279495
#
# Disc length: 4745 seconds
#
# Revision: 4
# Processed by: cddbd v1.5.1PL0 Copyright (c) Steve Scherf et al.
# Submitted via: CDex 1.51
#
DISCID=9512870b
DTITLE=Eric Clapton - One More Car One More Rider Disc 1
DYEAR=2002
DGENRE=Rock
TTITLE0=Key to the Highway
TTITLE1=Reptile
TTITLE2=Go You On My Mind
TTITLE3=Tears in Heaven
TTITLE4=Bell Bottom Blues
TTITLE5=Change the World
TTITLE6=My Father's Eyes
TTITLE7=River of Tears
TTITLE8=Going Down Slow
TTITLE9=She's Gone
TTITLE10=Data
EXTD=YEAR: 2002
EXTT0=
EXTT1=
EXTT2=
EXTT3=
EXTT4=
EXTT5=
EXTT6=
EXTT7=
EXTT8=
EXTT9=
EXTT10=
PLAYORDER=
